<svg xmlns="http://www.w3.org/2000/svg" viewBox="0 0 192.993 45.5492"><defs><style>.a{fill:#898788;}.b{fill:#c92f07;}</style></defs><title>ibs-dimag-logo</title><path class="a" d="M75.0193,9.043c3.5332,0,5.59,2.8823,5.59,7.019,0,4.0928-2.0571,6.9751-5.59,6.9751-3.5088,0-5.5659-2.86-5.5659-6.9751C69.4534,11.9254,71.5105,9.043,75.0193,9.043Zm0,2.0684c-1.6211,0-2.8071,1.8481-2.8071,4.9507,0,3.0806,1.186,4.9067,2.8071,4.9067,1.67,0,2.88-1.8262,2.88-4.9067C77.8992,12.96,76.6893,11.1114,75.0193,11.1114Zm8.8335,16.1943V7.7008H86.66v19.605Z" transform="translate(0 -0.2779)"/><path class="a" d="M100.72,18.9664a9.9507,9.9507,0,0,1-4.8159-4.1587,8.6214,8.6214,0,0,1-4.937,4.709l-1.6938-2.0244a7.1056,7.1056,0,0,0,5.1548-6.623V8.8009h2.9043v1.9365c0,3.0361,2.4922,5.4785,5.0088,6.2271ZM92.9271,26.8V20.4405h2.8315v4.335h11.4229V26.8Zm13.7212-13.4883h3.0742v2.1343h-3.0742v6.4692h-2.8311V7.7008h2.8311Z" transform="translate(0 -0.2779)"/><path class="a" d="M118.9666,27.3282V20.3526h-8.2529V18.3282h19.4814v2.0244h-8.373v6.9756ZM128.1629,16.7c-3.1943-.44-6.6309-2.3105-7.6963-4.4668-.9434,2.1563-4.38,4.0049-7.6475,4.4888l-1.21-2.1123c3.7275-.374,7.3574-2.5522,7.3574-5.479V8.1187h3.001V9.1309c0,2.9268,3.9688,5.1929,7.43,5.479Z" transform="translate(0 -0.2779)"/><path class="a" d="M131.4773,12.8936V10.8912h12.5117v2.0024Zm6.3164,7.3052c-2.9521,0-5.1787-1.3862-5.1787-3.4106s2.2021-3.3887,5.1787-3.3887c2.9277,0,5.1064,1.3643,5.1064,3.3887S140.7215,20.1988,137.7938,20.1988Zm10.7207.8579v6.2715h-2.8311V23.1036h-11.375V21.0567ZM134.5994,8.0308h6.3887v2.0024h-6.3887ZM137.7938,18.24c1.2578,0,2.3232-.5937,2.3232-1.4521s-1.0654-1.43-2.3232-1.43c-1.3066,0-2.3477.5723-2.3477,1.43S136.5105,18.24,137.7938,18.24Zm10.7207-2.8823V20.11H145.659V7.7008h2.8555V13.29H151.54V15.358Z" transform="translate(0 -0.2779)"/><path class="a" d="M152.5789,24.5333V22.5089H172.06v2.0244Zm16.0215-3.19-2.7588-.2422a46.6125,46.6125,0,0,0,.9189-9.373H154.8055V9.7032h14.7871A56.8375,56.8375,0,0,1,168.6,21.3429Z" transform="translate(0 -0.2779)"/><path class="a" d="M181.7889,21.211V19.1646h-8.2773V17.1182H192.993v2.0464H184.62V21.211Zm-5.7119-5.2588V11.0675h11.4717V10.0553H175.98V8.1187h14.4238v4.7969H178.909v1.0781h12.0518v1.9585Zm-.0723,11.1113v-6.689h2.8076v1.5405h8.8809V20.3306h2.8076v6.7329Zm11.6885-3.19h-8.8809v1.166h8.8809Z" transform="translate(0 -0.2779)"/><path class="a" d="M73.2532,33.2823a4.02,4.02,0,0,1,1.8945.4346,3.153,3.153,0,0,1,1.2891,1.2207,3.44,3.44,0,0,1,.459,1.7676,3.4031,3.4031,0,0,1-.4614,1.7754,3.1021,3.1021,0,0,1-1.311,1.1982,4.3,4.3,0,0,1-1.9482.4248H70.3968V33.2823Zm-.1367,5.791a2.38,2.38,0,0,0,1.7554-.6572,2.5905,2.5905,0,0,0-.0049-3.4639,2.4816,2.4816,0,0,0-1.7944-.64H71.7151v4.7607Z" transform="translate(0 -0.2779)"/><path class="a" d="M78.4944,33.4337a.6836.6836,0,0,1,.6787.6787.6688.6688,0,0,1-.1978.4756.6544.6544,0,0,1-.957,0,.66.66,0,0,1-.2026-.4756.6461.6461,0,0,1,.2051-.4814A.6654.6654,0,0,1,78.4944,33.4337Zm.6006,2.1094v4.5605H77.8938V35.543Z" transform="translate(0 -0.2779)"/><path class="a" d="M81.6946,35.4552a2.8019,2.8019,0,0,1,.708.0859,3.5431,3.5431,0,0,1,.7031.2705v.9619a3.358,3.358,0,0,0-.7324-.3535,2.17,2.17,0,0,0-.6982-.1348.7221.7221,0,0,0-.4053.0977.3157.3157,0,0,0-.1465.2783.28.28,0,0,0,.1221.2051,4.5825,4.5825,0,0,0,.6689.376,4.0775,4.0775,0,0,1,1.0962.73,1.1286,1.1286,0,0,1,.3149.8027,1.2706,1.2706,0,0,1-.459,1.0371,1.8871,1.8871,0,0,1-1.24.3789,3.7016,3.7016,0,0,1-.9106-.1074,3.05,3.05,0,0,1-.7007-.2588v-1.001a3.2187,3.2187,0,0,0,1.4795.4883,1.001,1.001,0,0,0,.498-.1094.33.33,0,0,0,.19-.291.3121.3121,0,0,0-.0684-.1953.8813.8813,0,0,0-.2051-.1807q-.137-.0923-.8545-.4443a2.4367,2.4367,0,0,1-.8154-.5742,1.0954,1.0954,0,0,1-.2637-.7344,1.1548,1.1548,0,0,1,.4736-.9668A1.9973,1.9973,0,0,1,81.6946,35.4552Z" transform="translate(0 -0.2779)"/><path class="a" d="M86.3211,35.4552a3.3014,3.3014,0,0,1,1.44.3076v1.0205a2.43,2.43,0,0,0-1.2109-.3711,1.4567,1.4567,0,0,0-1.0034,2.4512,1.42,1.42,0,0,0,1.0474.3906,3.3872,3.3872,0,0,0,1.25-.3223v.9717a3.8332,3.8332,0,0,1-1.46.2881,2.5565,2.5565,0,0,1-1.7993-.6348,2.1775,2.1775,0,0,1-.6909-1.6846,2.347,2.347,0,0,1,.6763-1.7529A2.3931,2.3931,0,0,1,86.3211,35.4552Z" transform="translate(0 -0.2779)"/><path class="a" d="M91.23,35.4552a1.1158,1.1158,0,0,1,.4712.1074,2.6218,2.6218,0,0,1,.54.3613l-.43,1.05a1.5783,1.5783,0,0,0-.84-.3906.8971.8971,0,0,0-.5493.208,1.4779,1.4779,0,0,0-.4346.5488,1.5739,1.5739,0,0,0-.1636.6836v2.08H88.6229V35.543H89.824v1.1621h.02a3.1816,3.1816,0,0,1,.6592-.9551A1.0743,1.0743,0,0,1,91.23,35.4552Z" transform="translate(0 -0.2779)"/><path class="a" d="M94.7234,35.4552a2.0444,2.0444,0,0,1,1.5918.6445,2.5513,2.5513,0,0,1,.5859,1.7822v.1807H93.6736a1.4024,1.4024,0,0,0,.4565.9395,1.5564,1.5564,0,0,0,1.0522.33,2.3551,2.3551,0,0,0,.8276-.1484,3.6252,3.6252,0,0,0,.8228-.4521v.8936a3.276,3.276,0,0,1-1.9434.5664,2.4562,2.4562,0,0,1-1.7627-.6494,2.2722,2.2722,0,0,1-.6836-1.7285,2.354,2.354,0,0,1,.6323-1.6992A2.18,2.18,0,0,1,94.7234,35.4552Zm1.05,1.88a1.3168,1.3168,0,0,0-.3027-.7783.8931.8931,0,0,0-.6982-.2812,1.0034,1.0034,0,0,0-.73.2686,1.3222,1.3222,0,0,0-.3491.791Z" transform="translate(0 -0.2779)"/><path class="a" d="M98.9734,34.3321h.0977V35.543h1.5625v.9082H99.0711v2.1045a.6472.6472,0,0,0,.6934.6885,2.0487,2.0487,0,0,0,.9668-.3027v.9619a3.0139,3.0139,0,0,1-1.2207.2881,1.6555,1.6555,0,0,1-1.2041-.42,1.5132,1.5132,0,0,1-.4316-1.1377V36.4513h-.7129v-.1953Z" transform="translate(0 -0.2779)"/><path class="a" d="M103.3357,35.4552a2.0437,2.0437,0,0,1,1.5918.6445,2.5513,2.5513,0,0,1,.5859,1.7822v.1807h-3.2275a1.4007,1.4007,0,0,0,.457.9395,1.5533,1.5533,0,0,0,1.0518.33,2.3525,2.3525,0,0,0,.8271-.1484,3.6176,3.6176,0,0,0,.8232-.4521v.8936a3.277,3.277,0,0,1-1.9434.5664,2.4562,2.4562,0,0,1-1.7627-.6494,2.27,2.27,0,0,1-.6836-1.7285,2.3523,2.3523,0,0,1,.6328-1.6992A2.1788,2.1788,0,0,1,103.3357,35.4552Zm1.05,1.88a1.3168,1.3168,0,0,0-.3027-.7783.8931.8931,0,0,0-.6982-.2812,1.0015,1.0015,0,0,0-.7295.2686,1.32,1.32,0,0,0-.35.791Z" transform="translate(0 -0.2779)"/><path class="a" d="M110.3328,33.2823l2.2412,2.69,2.2412-2.69h1.1768v6.8213h-1.3184v-4.79h-.0391l-1.9727,2.4023h-.1855l-1.9727-2.4023h-.0391v4.79h-1.3184V33.2823Z" transform="translate(0 -0.2779)"/><path class="a" d="M118.865,35.4552a2.1046,2.1046,0,0,1,1.3428.373,1.2644,1.2644,0,0,1,.4639,1.043v2.2314c0,.1729.07.2588.21.2588a.626.626,0,0,0,.2461-.0762,1.0474,1.0474,0,0,0,.2666-.1729v.6934a2.2513,2.2513,0,0,1-1.1523.3857.946.946,0,0,1-.4951-.1074.588.588,0,0,1-.2422-.3809,2.3788,2.3788,0,0,1-1.3818.4883,1.191,1.191,0,0,1-.8467-.332,1.0526,1.0526,0,0,1-.3545-.7959,1.24,1.24,0,0,1,.3516-.9326,2.9887,2.9887,0,0,1,1.23-.5957l.9717-.2832v-.21q0-.6694-.8105-.6689a1.9447,1.9447,0,0,0-.8252.19,2.3444,2.3444,0,0,0-.7471.5615V36.046A2.7731,2.7731,0,0,1,118.865,35.4552Zm-.7324,3.4277a.5252.5252,0,0,0,.1592.4.5471.5471,0,0,0,.3926.1514,1.1821,1.1821,0,0,0,.791-.3613V37.8721a5.74,5.74,0,0,0-.7891.3223,1.45,1.45,0,0,0-.42.3076A.5684.5684,0,0,0,118.1326,38.8829Z" transform="translate(0 -0.2779)"/><path class="a" d="M123.1834,34.3321h.0977V35.543h1.5625v.9082h-1.5625v2.1045a.6472.6472,0,0,0,.6934.6885,2.0487,2.0487,0,0,0,.9668-.3027v.9619a3.0139,3.0139,0,0,1-1.2207.2881,1.6555,1.6555,0,0,1-1.2041-.42,1.5169,1.5169,0,0,1-.4316-1.1377V36.4513h-.7129v-.1953Z" transform="translate(0 -0.2779)"/><path class="a" d="M126.7059,33.2823v2.9h.0293a1.7408,1.7408,0,0,1,1.4014-.7275,1.5217,1.5217,0,0,1,1.1719.4785,1.7651,1.7651,0,0,1,.4443,1.25v2.92h-1.1963v-2.69a1.1331,1.1331,0,0,0-.2168-.7295.7185.7185,0,0,0-.5937-.2715.933.933,0,0,0-.5156.1563,2.32,2.32,0,0,0-.5244.5176v3.0176h-1.2012V33.2823Z" transform="translate(0 -0.2779)"/><path class="a" d="M132.8357,35.4552a2.0437,2.0437,0,0,1,1.5918.6445,2.5513,2.5513,0,0,1,.5859,1.7822v.1807h-3.2275a1.4007,1.4007,0,0,0,.457.9395,1.5533,1.5533,0,0,0,1.0518.33,2.3525,2.3525,0,0,0,.8271-.1484,3.6176,3.6176,0,0,0,.8232-.4521v.8936a3.277,3.277,0,0,1-1.9434.5664,2.4562,2.4562,0,0,1-1.7627-.6494,2.27,2.27,0,0,1-.6836-1.7285,2.3523,2.3523,0,0,1,.6328-1.6992A2.1788,2.1788,0,0,1,132.8357,35.4552Zm1.05,1.88a1.3168,1.3168,0,0,0-.3027-.7783.8931.8931,0,0,0-.6982-.2812,1.0015,1.0015,0,0,0-.7295.2686,1.32,1.32,0,0,0-.35.791Z" transform="translate(0 -0.2779)"/><path class="a" d="M138.4773,35.4552a1.5512,1.5512,0,0,1,.8906.2461,1.51,1.51,0,0,1,.5449.6621,2.8414,2.8414,0,0,1,.77-.6914,1.6787,1.6787,0,0,1,.8418-.2168,1.5317,1.5317,0,0,1,1.167.4707,1.76,1.76,0,0,1,.4443,1.2578v2.92h-1.2012v-2.72a1.2267,1.2267,0,0,0-.2031-.7471.6854.6854,0,0,0-.5879-.2734,1.3788,1.3788,0,0,0-1.06.708v3.0322h-1.1963V37.3643a1.1391,1.1391,0,0,0-.2148-.7354.7038.7038,0,0,0-.5762-.2656.9328.9328,0,0,0-.5371.168,2.4322,2.4322,0,0,0-.5225.54v3.0322h-1.2012V35.543h1.2012v.64a2.4166,2.4166,0,0,1,.6641-.55A1.6432,1.6432,0,0,1,138.4773,35.4552Z" transform="translate(0 -0.2779)"/><path class="a" d="M145.8182,35.4552a2.1046,2.1046,0,0,1,1.3428.373,1.2644,1.2644,0,0,1,.4639,1.043v2.2314c0,.1729.07.2588.21.2588a.626.626,0,0,0,.2461-.0762,1.0474,1.0474,0,0,0,.2666-.1729v.6934a2.2513,2.2513,0,0,1-1.1523.3857.946.946,0,0,1-.4951-.1074.588.588,0,0,1-.2422-.3809,2.3788,2.3788,0,0,1-1.3818.4883,1.191,1.191,0,0,1-.8467-.332,1.0526,1.0526,0,0,1-.3545-.7959,1.24,1.24,0,0,1,.3516-.9326,2.9887,2.9887,0,0,1,1.23-.5957l.9717-.2832v-.21q0-.6694-.8105-.6689a1.9447,1.9447,0,0,0-.8252.19,2.3444,2.3444,0,0,0-.7471.5615V36.046A2.7731,2.7731,0,0,1,145.8182,35.4552Zm-.7324,3.4277a.5252.5252,0,0,0,.1592.4.5471.5471,0,0,0,.3926.1514,1.1821,1.1821,0,0,0,.791-.3613V37.8721a5.74,5.74,0,0,0-.7891.3223,1.45,1.45,0,0,0-.42.3076A.5684.5684,0,0,0,145.0857,38.8829Z" transform="translate(0 -0.2779)"/><path class="a" d="M150.1365,34.3321h.0977V35.543h1.5625v.9082h-1.5625v2.1045a.6472.6472,0,0,0,.6934.6885,2.0487,2.0487,0,0,0,.9668-.3027v.9619a3.0139,3.0139,0,0,1-1.2207.2881,1.6555,1.6555,0,0,1-1.2041-.42,1.5169,1.5169,0,0,1-.4316-1.1377V36.4513h-.7129v-.1953Z" transform="translate(0 -0.2779)"/><path class="a" d="M153.0984,33.4337a.6836.6836,0,0,1,.6787.6787.6653.6653,0,0,1-.1982.4756.6367.6367,0,0,1-.48.208.6451.6451,0,0,1-.4766-.208.6615.6615,0,0,1-.2021-.4756.6461.6461,0,0,1,.2051-.4814A.6663.6663,0,0,1,153.0984,33.4337Zm.6006,2.1094v4.5605h-1.2012V35.543Z" transform="translate(0 -0.2779)"/><path class="a" d="M157.0066,35.4552a3.3029,3.3029,0,0,1,1.44.3076v1.0205a2.4309,2.4309,0,0,0-1.2109-.3711,1.457,1.457,0,0,0-1.0039,2.4512,1.4209,1.4209,0,0,0,1.0479.3906,3.39,3.39,0,0,0,1.25-.3223v.9717a3.8332,3.8332,0,0,1-1.46.2881,2.5537,2.5537,0,0,1-1.7988-.6348,2.1762,2.1762,0,0,1-.6914-1.6846,2.3485,2.3485,0,0,1,.6758-1.7529A2.3958,2.3958,0,0,1,157.0066,35.4552Z" transform="translate(0 -0.2779)"/><path class="a" d="M160.7879,35.4552a2.8019,2.8019,0,0,1,.708.0859,3.52,3.52,0,0,1,.7031.2705v.9619a3.3366,3.3366,0,0,0-.7324-.3535,2.1727,2.1727,0,0,0-.6982-.1348.721.721,0,0,0-.4053.0977.3157.3157,0,0,0-.1465.2783.2815.2815,0,0,0,.1221.2051,4.5825,4.5825,0,0,0,.6689.376,4.1063,4.1063,0,0,1,1.0967.73,1.1323,1.1323,0,0,1,.3145.8027,1.272,1.272,0,0,1-.459,1.0371,1.8871,1.8871,0,0,1-1.24.3789,3.6976,3.6976,0,0,1-.91-.1074,3.0462,3.0462,0,0,1-.7012-.2588v-1.001a3.2187,3.2187,0,0,0,1.4795.4883,1.001,1.001,0,0,0,.498-.1094.33.33,0,0,0,.19-.291.3093.3093,0,0,0-.0684-.1953.9021.9021,0,0,0-.2051-.1807q-.1362-.0923-.8545-.4443a2.4316,2.4316,0,0,1-.8154-.5742,1.0954,1.0954,0,0,1-.2637-.7344,1.156,1.156,0,0,1,.4736-.9668A1.9954,1.9954,0,0,1,160.7879,35.4552Z" transform="translate(0 -0.2779)"/><path class="a" d="M169.615,33.1944a6.018,6.018,0,0,1,2.5.5615V34.962a5.3647,5.3647,0,0,0-2.4414-.63,2.8755,2.8755,0,0,0-1.3281.2979,2.143,2.143,0,0,0-.9014.8564,2.473,2.473,0,0,0-.3193,1.248,2.1673,2.1673,0,0,0,.6963,1.6816,2.6011,2.6011,0,0,0,1.833.6377A3.22,3.22,0,0,0,170.2527,39a4.15,4.15,0,0,0,.6807-.2051V37.6622h-1.1279v-1.03h2.4463v2.8125a3.98,3.98,0,0,1-1.208.55,5.4548,5.4548,0,0,1-1.4678.1973,4.27,4.27,0,0,1-1.9561-.4443,3.324,3.324,0,0,1-1.8574-3.0322,3.367,3.367,0,0,1,1.877-3.0713A4.3072,4.3072,0,0,1,169.615,33.1944Z" transform="translate(0 -0.2779)"/><path class="a" d="M175.9939,35.4552a1.1212,1.1212,0,0,1,.4717.1074,2.6336,2.6336,0,0,1,.5391.3613l-.43,1.05a1.5783,1.5783,0,0,0-.84-.3906.8937.8937,0,0,0-.5488.208,1.4752,1.4752,0,0,0-.4355.5488,1.58,1.58,0,0,0-.1631.6836v2.08h-1.2012V35.543h1.2012v1.1621h.02a3.1641,3.1641,0,0,1,.6592-.9551A1.0752,1.0752,0,0,1,175.9939,35.4552Z" transform="translate(0 -0.2779)"/><path class="a" d="M179.7068,35.4552a2.7987,2.7987,0,0,1,1.2939.2979,2.16,2.16,0,0,1,.8984.835,2.3429,2.3429,0,0,1,.3174,1.2158,2.4528,2.4528,0,0,1-.3047,1.24,2.1516,2.1516,0,0,1-.8984.84,2.7985,2.7985,0,0,1-1.3066.3076,2.7613,2.7613,0,0,1-1.3037-.3076,2.1567,2.1567,0,0,1-.8916-.84,2.4528,2.4528,0,0,1-.3047-1.24,2.3268,2.3268,0,0,1,.3223-1.2236,2.2035,2.2035,0,0,1,.8984-.83A2.7693,2.7693,0,0,1,179.7068,35.4552Zm-1.24,2.3486a1.667,1.667,0,0,0,.334,1.0908,1.1,1.1,0,0,0,.8965.4082,1.1538,1.1538,0,0,0,.9229-.3906,1.6627,1.6627,0,0,0,.3369-1.1182,1.5483,1.5483,0,0,0-.34-1.0713,1.17,1.17,0,0,0-.92-.3789,1.1143,1.1143,0,0,0-.8887.4A1.5772,1.5772,0,0,0,178.4666,37.8038Z" transform="translate(0 -0.2779)"/><path class="a" d="M184.2156,35.543v2.8223a.9382.9382,0,0,0,.2227.6758.773.773,0,0,0,.5879.2324,1.0291,1.0291,0,0,0,.5811-.1855,1.3439,1.3439,0,0,0,.4492-.5225V35.543h1.2012v4.5605h-1.2012v-.62a1.8977,1.8977,0,0,1-1.4062.708,1.5446,1.5446,0,0,1-1.1816-.4785,1.7509,1.7509,0,0,1-.4492-1.25v-2.92Z" transform="translate(0 -0.2779)"/><path class="a" d="M190.6883,35.4552a2.0292,2.0292,0,0,1,1.5742.6543,2.4244,2.4244,0,0,1,.5986,1.7041,2.6436,2.6436,0,0,1-.28,1.23,2.0569,2.0569,0,0,1-.7988.8447,2.2728,2.2728,0,0,1-1.1719.3027,2.3806,2.3806,0,0,1-1.0693-.2686v2.48H188.34v-6.86h1.1914v.293A1.9766,1.9766,0,0,1,190.6883,35.4552Zm-1.1475,3.5889a1.6947,1.6947,0,0,0,.84.2588,1.1268,1.1268,0,0,0,.9082-.4053,1.5669,1.5669,0,0,0,.3418-1.0449,1.7462,1.7462,0,0,0-.3057-1.0937,1.03,1.03,0,0,0-.8662-.3955,1.1875,1.1875,0,0,0-.4053.07,2.3325,2.3325,0,0,0-.5127.3008Z" transform="translate(0 -0.2779)"/><path class="a" d="M47.1548,8.9576c0-2.2832,2.3608-2.9219,4.3506-2.9219A14.3552,14.3552,0,0,1,58.686,8.4644c.147.0869.2071.0635.2071-.0781V4.8472c0-.1132,0-.2451-.17-.2783A32.6232,32.6232,0,0,0,51.94,3.439c-7.5346-.2031-10.3755,3.5528-10.3755,7.377,0,7.3262,13.6036,7.6465,13.6036,12.8476,0,1.8584-1.4273,3.56-5.3428,3.56A11.9023,11.9023,0,0,1,44.67,26.065c-1.7182-.8252-2.9941-2.1-4.6181-3.0078a10.6915,10.6915,0,0,0-5.1553-1.37,8.14,8.14,0,0,0-7.2071,3.832c-.0673.1026-.1132.0967-.1132,0V9.0875a.102.102,0,0,0-.1353-.1l-2.0093.49-.3642.085-.0386.0117-.7632.1855-5.0591,1.2813-.9531.2334-.1865.0478-.1826.042-.5225.127a.1839.1839,0,0,0-.1411.164v.9971a.1462.1462,0,0,0,.1431.1367l.4917.0283c2.832.2061,3.8076.9024,3.8076,4.0811V42.9644c0,.19.0366.1817.2334.1289v.002l4.7246-1.2285c.2622.2295,2.0972,3.957,8.105,3.957,7.4956,0,10.373-5.667,10.373-11.8223a18.398,18.398,0,0,0-.5864-4.832,18.373,18.373,0,0,0,5.2944.8945c6.0176.1328,10.9483-2.6289,10.9483-7.831C60.7554,14.106,47.1548,14.0006,47.1548,8.9576ZM32.8193,43.3648c-4.7832,0-5.2431-6.1572-5.2431-8.77V32.5748c0-2.7608.6313-7.8867,5.6479-7.8867s5.5362,5.665,5.5362,9.1181C38.76,37.6,38.2988,43.3648,32.8193,43.3648Z" transform="translate(0 -0.2779)"/><path class="b" d="M4.4614,4.9761A4.7,4.7,0,0,1,9.1606.2779a4.7608,4.7608,0,0,1,4.7745,4.6982A4.8431,4.8431,0,0,1,9.0864,9.7486,4.7029,4.7029,0,0,1,4.4614,4.9761Z" transform="translate(0 -0.2779)"/><path class="b" d="M13.7725,12.5718.1455,16.0884A.1955.1955,0,0,0,0,16.2623v1.0732a.1751.1751,0,0,0,.1484.1621l.3028.041c3.9409.3145,6.623,1.13,6.623,6.0332V45.6656c0,.19.0366.1816.2339.1289l6.4175-1.6807h0c.1948-.05.1948-.1748.1948-.3388V12.6773A.111.111,0,0,0,13.7725,12.5718Z" transform="translate(0 -0.2779)"/></svg>